<?xml version="1.0" encoding="utf-8"?>
<!DOCTYPE svg PUBLIC "-//W3C//DTD SVG 1.0//EN" "http://www.w3.org/TR/2001/REC-SVG-20010904/DTD/svg10.dtd">
<svg version="1.0" xmlns="http://www.w3.org/2000/svg" width="512px" height="512px" viewBox="0 0 512 512" preserveAspectRatio="xMidYMid meet">
 <g fill="#ffffff">
  <path d="M247.5 511.3 c-67.4 -2.2 -134.6 -33.6 -179.9 -84.2 -32 -35.8 -52.5 -76.3 -61.5 -121.6 -11.3 -56.7 -4.2 -110.6 21 -161.4 25.6 -51.7 65.9 -91.9 117.3 -117.1 17.5 -8.5 33.4 -14.4 52 -19.1 37.2 -9.4 80.5 -9.7 120.9 -0.9 12.6 2.8 20.8 7 28.8 15 10.6 10.4 15.9 23 15.9 37.5 0 16.4 -4.8 26.2 -21.3 43 -20.2 20.5 -31.6 35.8 -42 56.3 -13 25.5 -19.3 49.7 -20.4 77.8 -1.8 47 13 90.8 43.7 129.4 7.7 9.7 26.9 28.6 38.1 37.4 9 7.2 14.1 13.2 17.8 21.1 11.3 23.6 3.5 52 -18 66.4 -17.4 11.6 -72.7 21.7 -112.4 20.4z m39.5 -42.7 c15.2 -2.1 30.2 -5.3 41 -8.9 8 -2.7 9.8 -3.7 11.7 -6.6 4.4 -6.5 2.3 -11.3 -9 -20.1 -30.2 -23.7 -57.9 -59 -73.5 -93.6 -24.4 -54.3 -27.4 -114.8 -8.3 -169.8 11.3 -32.7 30.4 -63.2 56.3 -90.1 7.6 -7.8 14.2 -15.4 14.7 -16.9 1.4 -3.4 0.4 -8 -2.3 -10.9 -3.5 -3.8 -20.7 -7.1 -44.6 -8.7 -40.8 -2.7 -80.4 5.4 -115 23.6 -103.4 54.5 -144.9 179.2 -94.1 282.9 11.2 22.7 23.2 39.7 39.5 55.8 16.8 16.6 32.7 28.2 53.6 39.1 23.7 12.3 51.2 21 76 24 15.2 1.8 41 1.9 54 0.2z"/>
  <path d="M482.5 403.1 c-14.1 -6.5 -16.8 -25.1 -5 -34.8 9.6 -8 21.5 -6.4 29.8 3.9 5.5 6.9 5 18.2 -1.1 25 -6.7 7.4 -15.6 9.7 -23.7 5.9z"/>
  <path d="M356.8 318.8 c-9.1 -2.4 -15.4 -12 -14.6 -22.3 1.6 -19.3 26.5 -25.4 37.6 -9.1 2.7 4.1 3.2 5.7 3.2 10.6 0 7.3 -0.9 9.8 -5.6 14.9 -2.5 2.9 -5.1 4.5 -8.7 5.6 -5.7 1.7 -6.7 1.7 -11.9 0.3z"/>
  <path d="M427.8 253 c-7.3 -3.9 -9.2 -7.7 -13.9 -26.4 -2.3 -9.4 -4.3 -17.2 -4.4 -17.4 -0.2 -0.2 -7.8 -2.3 -17 -4.8 -9.1 -2.4 -17.4 -4.8 -18.4 -5.3 -1 -0.6 -3.4 -2.8 -5.4 -5 -8.2 -9.1 -7.3 -21.1 2.3 -29.3 3.6 -3.1 5.9 -4 15.8 -6.3 14.6 -3.3 22.3 -5.3 22.7 -5.7 0.1 -0.2 1.9 -7.3 4 -15.8 4.3 -17.8 6.8 -22.9 12.8 -26.4 8.1 -4.8 16.2 -4.4 23.5 1.1 5.2 3.9 6.7 7.3 11.2 25.2 l4.1 16.7 11.7 2.8 c17.7 4.3 23.8 6.4 27.3 9.3 6.9 5.8 8.9 17.1 4.6 25.4 -3.5 6.7 -9.4 9.7 -27.9 14.2 l-15.6 3.9 -4.1 16.4 c-4.5 17.8 -6.6 22.2 -12.7 26.4 -5.1 3.4 -15.3 3.9 -20.6 1z"/>
 </g>
</svg>