<?xml version="1.0" encoding="UTF-8" standalone="no"?>
<!DOCTYPE svg PUBLIC "-//W3C//DTD SVG 1.1//EN" "http://www.w3.org/Graphics/SVG/1.1/DTD/svg11.dtd">
<svg xmlns="http://www.w3.org/2000/svg" version="1.1" viewBox="0.00 0.00 103.00 38.00">
<path fill="#e83d95" d="
  M 23.32 33.56
  A 0.63 0.63 0.0 0 0 22.30 33.29
  C 17.71 37.35 11.39 38.31 6.42 34.31
  C -8.63 22.19 13.40 -9.00 29.49 5.66
  A 0.90 0.89 -51.2 0 0 30.83 5.51
  Q 32.99 2.45 36.71 2.64
  A 2.24 2.23 -82.4 0 1 38.78 5.35
  Q 37.85 9.66 36.24 13.77
  A 2.30 2.30 0.0 0 1 32.72 14.77
  Q 30.10 12.79 27.40 10.39
  C 18.91 2.83 13.04 23.63 15.85 28.41
  C 16.88 30.17 19.75 30.59 21.42 29.30
  C 22.53 28.45 23.22 25.07 23.55 23.69
  A 0.57 0.57 0.0 0 0 23.13 23.01
  Q 21.32 22.58 20.06 21.42
  A 1.56 1.56 0.0 0 1 21.09 18.71
  L 37.41 18.42
  A 1.52 1.52 0.0 0 1 38.29 21.20
  L 34.98 23.43
  Q 34.52 23.75 34.36 24.29
  L 31.26 34.71
  Q 31.12 35.20 30.73 35.52
  C 27.89 37.88 24.38 36.72 23.32 33.56
  Z"
/>
<path fill="#e83d95" d="
  M 39.44 36.55
  A 1.98 1.98 0.0 0 1 37.19 34.23
  Q 38.00 29.88 39.95 25.79
  C 43.90 17.51 48.93 35.39 56.44 30.27
  Q 56.90 29.95 56.82 29.40
  C 56.17 25.36 47.87 21.14 45.64 18.87
  C 42.31 15.48 43.81 9.42 46.87 6.24
  C 51.83 1.07 60.35 1.65 66.21 4.93
  A 0.80 0.79 -49.2 0 0 67.09 4.86
  C 68.27 3.95 75.13 0.17 74.25 4.72
  C 70.25 25.26 65.17 6.27 58.23 7.91
  C 51.10 9.61 62.83 16.00 64.25 16.92
  C 70.36 20.91 71.43 28.32 65.98 33.25
  C 60.41 38.29 51.83 37.51 45.82 33.59
  A 0.99 0.98 -52.4 0 0 44.54 33.76
  Q 42.49 36.07 39.44 36.55
  Z"
/>
<path fill="#e83d95" d="
  M 87.27 9.99
  C 91.05 9.26 97.63 9.39 100.31 12.80
  C 106.30 20.47 89.76 25.08 91.42 14.48
  A 0.43 0.43 0.0 0 0 90.78 14.04
  C 81.47 19.40 83.85 33.88 97.38 27.32
  A 0.83 0.82 0.3 0 1 98.48 28.43
  C 91.66 41.96 69.84 38.14 74.02 21.81
  Q 76.51 12.08 87.27 9.99
  Z"
/>
</svg>
