<?xml version="1.0"?>
<svg width="24" height="24" xmlns="http://www.w3.org/2000/svg" xmlns:svg="http://www.w3.org/2000/svg">

 <g class="layer">
  <title>Layer 1</title>
  <g id="sun">
   <path d="m12,17.75a5.75,5.75 0 1 1 5.75,-5.75a5.76,5.76 0 0 1 -5.75,5.75zm0,-10a4.25,4.25 0 1 0 4.25,4.25a4.26,4.26 0 0 0 -4.25,-4.25z" fill="#ffffff" id="svg_1"/>
   <path d="m12,5a0.76,0.76 0 0 1 -0.75,-0.75l0,-1.5a0.75,0.75 0 0 1 1.5,0l0,1.5a0.76,0.76 0 0 1 -0.75,0.75z" fill="#ffffff" id="svg_2"/>
   <path d="m12,22a0.76,0.76 0 0 1 -0.75,-0.75l0,-1.5a0.75,0.75 0 0 1 1.5,0l0,1.5a0.76,0.76 0 0 1 -0.75,0.75z" fill="#ffffff" id="svg_3"/>
   <path d="m21.25,12.75l-1.5,0a0.75,0.75 0 0 1 0,-1.5l1.5,0a0.75,0.75 0 0 1 0,1.5z" fill="#ffffff" id="svg_4"/>
   <path d="m4.25,12.75l-1.5,0a0.75,0.75 0 0 1 0,-1.5l1.5,0a0.75,0.75 0 0 1 0,1.5z" fill="#ffffff" id="svg_5"/>
   <path d="m6.5,7.25a0.74,0.74 0 0 1 -0.5,-0.25l-1.09,-1a0.75,0.75 0 1 1 1.09,-1.09l1,1.09a0.75,0.75 0 0 1 0,1a0.74,0.74 0 0 1 -0.5,0.25z" fill="#ffffff" id="svg_6"/>
   <path d="m18.56,19.31a0.74,0.74 0 0 1 -0.53,-0.22l-1.03,-1.09a0.75,0.75 0 0 1 1,-1l1.09,1a0.75,0.75 0 0 1 0,1.06a0.74,0.74 0 0 1 -0.53,0.25z" fill="#ffffff" id="svg_7"/>
   <path d="m17.5,7.25a0.74,0.74 0 0 1 -0.5,-0.25a0.75,0.75 0 0 1 0,-1l1,-1.09a0.75,0.75 0 1 1 1.09,1.09l-1.09,1a0.74,0.74 0 0 1 -0.5,0.25z" fill="#ffffff" id="svg_8"/>
   <path d="m5.44,19.31a0.74,0.74 0 0 1 -0.53,-0.22a0.75,0.75 0 0 1 0,-1.06l1.09,-1.03a0.75,0.75 0 0 1 1,1l-1,1.09a0.74,0.74 0 0 1 -0.56,0.22z" fill="#ffffff" id="svg_9"/>
  </g>
 </g>
</svg>