<svg id="visual" viewBox="0 0 1920 1080" width="1920" height="1080" xmlns="http://www.w3.org/2000/svg" xmlns:xlink="http://www.w3.org/1999/xlink" version="1.1"><rect x="0" y="0" width="1920" height="1080" fill="#001122"></rect><defs><linearGradient id="grad1_0" x1="43.8%" y1="0%" x2="100%" y2="100%"><stop offset="14.444444444444446%" stop-color="#ff0066" stop-opacity="1"></stop><stop offset="85.55555555555554%" stop-color="#ff0066" stop-opacity="1"></stop></linearGradient></defs><defs><linearGradient id="grad1_1" x1="43.8%" y1="0%" x2="100%" y2="100%"><stop offset="14.444444444444446%" stop-color="#ff0066" stop-opacity="1"></stop><stop offset="85.55555555555554%" stop-color="#b71c7d" stop-opacity="1"></stop></linearGradient></defs><defs><linearGradient id="grad1_2" x1="43.8%" y1="0%" x2="100%" y2="100%"><stop offset="14.444444444444446%" stop-color="#672c76" stop-opacity="1"></stop><stop offset="85.55555555555554%" stop-color="#b71c7d" stop-opacity="1"></stop></linearGradient></defs><defs><linearGradient id="grad1_3" x1="43.8%" y1="0%" x2="100%" y2="100%"><stop offset="14.444444444444446%" stop-color="#672c76" stop-opacity="1"></stop><stop offset="85.55555555555554%" stop-color="#222653" stop-opacity="1"></stop></linearGradient></defs><defs><linearGradient id="grad1_4" x1="43.8%" y1="0%" x2="100%" y2="100%"><stop offset="14.444444444444446%" stop-color="#001122" stop-opacity="1"></stop><stop offset="85.55555555555554%" stop-color="#222653" stop-opacity="1"></stop></linearGradient></defs><defs><linearGradient id="grad2_0" x1="0%" y1="0%" x2="56.3%" y2="100%"><stop offset="14.444444444444446%" stop-color="#ff0066" stop-opacity="1"></stop><stop offset="85.55555555555554%" stop-color="#ff0066" stop-opacity="1"></stop></linearGradient></defs><defs><linearGradient id="grad2_1" x1="0%" y1="0%" x2="56.3%" y2="100%"><stop offset="14.444444444444446%" stop-color="#b71c7d" stop-opacity="1"></stop><stop offset="85.55555555555554%" stop-color="#ff0066" stop-opacity="1"></stop></linearGradient></defs><defs><linearGradient id="grad2_2" x1="0%" y1="0%" x2="56.3%" y2="100%"><stop offset="14.444444444444446%" stop-color="#b71c7d" stop-opacity="1"></stop><stop offset="85.55555555555554%" stop-color="#672c76" stop-opacity="1"></stop></linearGradient></defs><defs><linearGradient id="grad2_3" x1="0%" y1="0%" x2="56.3%" y2="100%"><stop offset="14.444444444444446%" stop-color="#222653" stop-opacity="1"></stop><stop offset="85.55555555555554%" stop-color="#672c76" stop-opacity="1"></stop></linearGradient></defs><defs><linearGradient id="grad2_4" x1="0%" y1="0%" x2="56.3%" y2="100%"><stop offset="14.444444444444446%" stop-color="#222653" stop-opacity="1"></stop><stop offset="85.55555555555554%" stop-color="#001122" stop-opacity="1"></stop></linearGradient></defs><g transform="translate(1920, 0)"><path d="M0 702C-91 681.2 -182 660.3 -256.4 619C-330.8 577.7 -388.7 515.8 -457.5 457.5C-526.3 399.2 -606 344.3 -648.6 268.6C-691.1 193 -696.6 96.5 -702 0L0 0Z" fill="#091d3b"></path><path d="M0 561.6C-72.8 544.9 -145.6 528.3 -205.1 495.2C-264.7 462.1 -311 412.7 -366 366C-421 319.3 -484.8 275.4 -518.9 214.9C-552.9 154.4 -557.3 77.2 -561.6 0L0 0Z" fill="#422b67"></path><path d="M0 421.2C-54.6 408.7 -109.2 396.2 -153.8 371.4C-198.5 346.6 -233.2 309.5 -274.5 274.5C-315.8 239.5 -363.6 206.6 -389.1 161.2C-414.7 115.8 -417.9 57.9 -421.2 0L0 0Z" fill="#8f287d"></path><path d="M0 280.8C-36.4 272.5 -72.8 264.1 -102.6 247.6C-132.3 231.1 -155.5 206.3 -183 183C-210.5 159.7 -242.4 137.7 -259.4 107.5C-276.5 77.2 -278.6 38.6 -280.8 0L0 0Z" fill="#dd0675"></path><path d="M0 140.4C-18.2 136.2 -36.4 132.1 -51.3 123.8C-66.2 115.5 -77.7 103.2 -91.5 91.5C-105.3 79.8 -121.2 68.9 -129.7 53.7C-138.2 38.6 -139.3 19.3 -140.4 0L0 0Z" fill="#ff0066"></path></g><g transform="translate(0, 1080)"><path d="M0 -702C90.6 -683.1 181.2 -664.2 259.5 -626.4C337.7 -588.6 403.6 -531.8 471.6 -471.6C539.7 -411.5 609.8 -347.8 648.6 -268.6C687.3 -189.5 694.7 -94.7 702 0L0 0Z" fill="#091d3b"></path><path d="M0 -561.6C72.5 -546.5 145 -531.4 207.6 -501.1C270.2 -470.9 322.9 -425.5 377.3 -377.3C431.7 -329.2 487.9 -278.3 518.9 -214.9C549.8 -151.6 555.7 -75.8 561.6 0L0 0Z" fill="#422b67"></path><path d="M0 -421.2C54.4 -409.9 108.7 -398.5 155.7 -375.8C202.6 -353.1 242.2 -319.1 283 -283C323.8 -246.9 365.9 -208.7 389.1 -161.2C412.4 -113.7 416.8 -56.8 421.2 0L0 0Z" fill="#8f287d"></path><path d="M0 -280.8C36.2 -273.2 72.5 -265.7 103.8 -250.6C135.1 -235.4 161.4 -212.7 188.7 -188.7C215.9 -164.6 243.9 -139.1 259.4 -107.5C274.9 -75.8 277.9 -37.9 280.8 0L0 0Z" fill="#dd0675"></path><path d="M0 -140.4C18.1 -136.6 36.2 -132.8 51.9 -125.3C67.5 -117.7 80.7 -106.4 94.3 -94.3C107.9 -82.3 122 -69.6 129.7 -53.7C137.5 -37.9 138.9 -18.9 140.4 0L0 0Z" fill="#ff0066"></path></g></svg>