<svg id="visual" viewBox="0 0 1920 1080" width="1920" height="1080" xmlns="http://www.w3.org/2000/svg" xmlns:xlink="http://www.w3.org/1999/xlink" version="1.1"><rect x="0" y="0" width="1920" height="1080" fill="#FFFFFF"></rect><defs><linearGradient id="grad1_0" x1="43.8%" y1="100%" x2="100%" y2="0%"><stop offset="14.444444444444446%" stop-color="#ff0066" stop-opacity="1"></stop><stop offset="85.55555555555554%" stop-color="#ff0066" stop-opacity="1"></stop></linearGradient></defs><defs><linearGradient id="grad1_1" x1="43.8%" y1="100%" x2="100%" y2="0%"><stop offset="14.444444444444446%" stop-color="#ff0066" stop-opacity="1"></stop><stop offset="85.55555555555554%" stop-color="#ff4d7a" stop-opacity="1"></stop></linearGradient></defs><defs><linearGradient id="grad1_2" x1="43.8%" y1="100%" x2="100%" y2="0%"><stop offset="14.444444444444446%" stop-color="#ff728f" stop-opacity="1"></stop><stop offset="85.55555555555554%" stop-color="#ff4d7a" stop-opacity="1"></stop></linearGradient></defs><defs><linearGradient id="grad1_3" x1="43.8%" y1="100%" x2="100%" y2="0%"><stop offset="14.444444444444446%" stop-color="#ff728f" stop-opacity="1"></stop><stop offset="85.55555555555554%" stop-color="#ff91a4" stop-opacity="1"></stop></linearGradient></defs><defs><linearGradient id="grad1_4" x1="43.8%" y1="100%" x2="100%" y2="0%"><stop offset="14.444444444444446%" stop-color="#ffaeba" stop-opacity="1"></stop><stop offset="85.55555555555554%" stop-color="#ff91a4" stop-opacity="1"></stop></linearGradient></defs><defs><linearGradient id="grad1_5" x1="43.8%" y1="100%" x2="100%" y2="0%"><stop offset="14.444444444444446%" stop-color="#ffaeba" stop-opacity="1"></stop><stop offset="85.55555555555554%" stop-color="#ffc9d0" stop-opacity="1"></stop></linearGradient></defs><defs><linearGradient id="grad1_6" x1="43.8%" y1="100%" x2="100%" y2="0%"><stop offset="14.444444444444446%" stop-color="#ffe4e7" stop-opacity="1"></stop><stop offset="85.55555555555554%" stop-color="#ffc9d0" stop-opacity="1"></stop></linearGradient></defs><defs><linearGradient id="grad1_7" x1="43.8%" y1="100%" x2="100%" y2="0%"><stop offset="14.444444444444446%" stop-color="#ffe4e7" stop-opacity="1"></stop><stop offset="85.55555555555554%" stop-color="#ffffff" stop-opacity="1"></stop></linearGradient></defs><defs><linearGradient id="grad2_0" x1="0%" y1="100%" x2="56.3%" y2="0%"><stop offset="14.444444444444446%" stop-color="#ff0066" stop-opacity="1"></stop><stop offset="85.55555555555554%" stop-color="#ff0066" stop-opacity="1"></stop></linearGradient></defs><defs><linearGradient id="grad2_1" x1="0%" y1="100%" x2="56.3%" y2="0%"><stop offset="14.444444444444446%" stop-color="#ff4d7a" stop-opacity="1"></stop><stop offset="85.55555555555554%" stop-color="#ff0066" stop-opacity="1"></stop></linearGradient></defs><defs><linearGradient id="grad2_2" x1="0%" y1="100%" x2="56.3%" y2="0%"><stop offset="14.444444444444446%" stop-color="#ff4d7a" stop-opacity="1"></stop><stop offset="85.55555555555554%" stop-color="#ff728f" stop-opacity="1"></stop></linearGradient></defs><defs><linearGradient id="grad2_3" x1="0%" y1="100%" x2="56.3%" y2="0%"><stop offset="14.444444444444446%" stop-color="#ff91a4" stop-opacity="1"></stop><stop offset="85.55555555555554%" stop-color="#ff728f" stop-opacity="1"></stop></linearGradient></defs><defs><linearGradient id="grad2_4" x1="0%" y1="100%" x2="56.3%" y2="0%"><stop offset="14.444444444444446%" stop-color="#ff91a4" stop-opacity="1"></stop><stop offset="85.55555555555554%" stop-color="#ffaeba" stop-opacity="1"></stop></linearGradient></defs><defs><linearGradient id="grad2_5" x1="0%" y1="100%" x2="56.3%" y2="0%"><stop offset="14.444444444444446%" stop-color="#ffc9d0" stop-opacity="1"></stop><stop offset="85.55555555555554%" stop-color="#ffaeba" stop-opacity="1"></stop></linearGradient></defs><defs><linearGradient id="grad2_6" x1="0%" y1="100%" x2="56.3%" y2="0%"><stop offset="14.444444444444446%" stop-color="#ffc9d0" stop-opacity="1"></stop><stop offset="85.55555555555554%" stop-color="#ffe4e7" stop-opacity="1"></stop></linearGradient></defs><defs><linearGradient id="grad2_7" x1="0%" y1="100%" x2="56.3%" y2="0%"><stop offset="14.444444444444446%" stop-color="#ffffff" stop-opacity="1"></stop><stop offset="85.55555555555554%" stop-color="#ffe4e7" stop-opacity="1"></stop></linearGradient></defs><g transform="translate(1920, 1080)"><path d="M-864 0C-794.5 -123.2 -725 -246.3 -661.6 -382C-598.3 -517.7 -541.2 -665.8 -432 -748.2C-322.8 -830.7 -161.4 -847.3 0 -864L0 0Z" fill="#fff2f3"></path><path d="M-756 0C-695.2 -107.8 -634.3 -215.5 -578.9 -334.3C-523.5 -453 -473.6 -582.6 -378 -654.7C-282.4 -726.8 -141.2 -741.4 0 -756L0 0Z" fill="#ffd7dc"></path><path d="M-648 0C-595.9 -92.4 -543.7 -184.8 -496.2 -286.5C-448.8 -388.2 -405.9 -499.4 -324 -561.2C-242.1 -623 -121 -635.5 0 -648L0 0Z" fill="#ffbcc5"></path><path d="M-540 0C-496.5 -77 -453.1 -154 -413.5 -238.8C-374 -323.5 -338.3 -416.1 -270 -467.7C-201.7 -519.2 -100.9 -529.6 0 -540L0 0Z" fill="#ffa0af"></path><path d="M-432 0C-397.2 -61.6 -362.5 -123.2 -330.8 -191C-299.2 -258.8 -270.6 -332.9 -216 -374.1C-161.4 -415.3 -80.7 -423.7 0 -432L0 0Z" fill="#ff8299"></path><path d="M-324 0C-297.9 -46.2 -271.9 -92.4 -248.1 -143.3C-224.4 -194.1 -203 -249.7 -162 -280.6C-121 -311.5 -60.5 -317.7 0 -324L0 0Z" fill="#ff6184"></path><path d="M-216 0C-198.6 -30.8 -181.2 -61.6 -165.4 -95.5C-149.6 -129.4 -135.3 -166.5 -108 -187.1C-80.7 -207.7 -40.3 -211.8 0 -216L0 0Z" fill="#ff3470"></path><path d="M-108 0C-99.3 -15.4 -90.6 -30.8 -82.7 -47.8C-74.8 -64.7 -67.7 -83.2 -54 -93.5C-40.3 -103.8 -20.2 -105.9 0 -108L0 0Z" fill="#ff0066"></path></g><g transform="translate(0, 0)"><path d="M864 0C789.4 120.2 714.8 240.5 652.1 376.5C589.4 512.5 538.7 664.4 432 748.2C325.3 832.1 162.7 848.1 0 864L0 0Z" fill="#fff2f3"></path><path d="M756 0C690.7 105.2 625.4 210.4 570.6 329.4C515.8 448.5 471.4 581.3 378 654.7C284.6 728.1 142.3 742.1 0 756L0 0Z" fill="#ffd7dc"></path><path d="M648 0C592 90.2 536.1 180.4 489.1 282.4C442.1 384.4 404 498.3 324 561.2C244 624.1 122 636 0 648L0 0Z" fill="#ffbcc5"></path><path d="M540 0C493.4 75.1 446.7 150.3 407.6 235.3C368.4 320.3 336.7 415.2 270 467.7C203.3 520.1 101.7 530 0 540L0 0Z" fill="#ffa0af"></path><path d="M432 0C394.7 60.1 357.4 120.2 326.1 188.2C294.7 256.3 269.3 332.2 216 374.1C162.7 416.1 81.3 424 0 432L0 0Z" fill="#ff8299"></path><path d="M324 0C296 45.1 268 90.2 244.5 141.2C221 192.2 202 249.1 162 280.6C122 312 61 318 0 324L0 0Z" fill="#ff6184"></path><path d="M216 0C197.3 30.1 178.7 60.1 163 94.1C147.4 128.1 134.7 166.1 108 187.1C81.3 208 40.7 212 0 216L0 0Z" fill="#ff3470"></path><path d="M108 0C98.7 15 89.3 30.1 81.5 47.1C73.7 64.1 67.3 83 54 93.5C40.7 104 20.3 106 0 108L0 0Z" fill="#ff0066"></path></g></svg>