<svg id="visual" viewBox="0 0 900 1000" width="900" height="1000" xmlns="http://www.w3.org/2000/svg" xmlns:xlink="http://www.w3.org/1999/xlink" version="1.1"><rect x="0" y="0" width="900" height="1000" fill="#001122"></rect><defs><linearGradient id="grad1_0" x1="0%" y1="0%" x2="100%" y2="100%"><stop offset="30%" stop-color="#ff0066" stop-opacity="1"></stop><stop offset="70%" stop-color="#ff0066" stop-opacity="1"></stop></linearGradient></defs><defs><linearGradient id="grad1_1" x1="0%" y1="0%" x2="100%" y2="100%"><stop offset="30%" stop-color="#ff0066" stop-opacity="1"></stop><stop offset="70%" stop-color="#b71c7d" stop-opacity="1"></stop></linearGradient></defs><defs><linearGradient id="grad1_2" x1="0%" y1="0%" x2="100%" y2="100%"><stop offset="30%" stop-color="#672c76" stop-opacity="1"></stop><stop offset="70%" stop-color="#b71c7d" stop-opacity="1"></stop></linearGradient></defs><defs><linearGradient id="grad1_3" x1="0%" y1="0%" x2="100%" y2="100%"><stop offset="30%" stop-color="#672c76" stop-opacity="1"></stop><stop offset="70%" stop-color="#222653" stop-opacity="1"></stop></linearGradient></defs><defs><linearGradient id="grad1_4" x1="0%" y1="0%" x2="100%" y2="100%"><stop offset="30%" stop-color="#001122" stop-opacity="1"></stop><stop offset="70%" stop-color="#222653" stop-opacity="1"></stop></linearGradient></defs><defs><linearGradient id="grad2_0" x1="0%" y1="0%" x2="100%" y2="100%"><stop offset="30%" stop-color="#ff0066" stop-opacity="1"></stop><stop offset="70%" stop-color="#ff0066" stop-opacity="1"></stop></linearGradient></defs><defs><linearGradient id="grad2_1" x1="0%" y1="0%" x2="100%" y2="100%"><stop offset="30%" stop-color="#b71c7d" stop-opacity="1"></stop><stop offset="70%" stop-color="#ff0066" stop-opacity="1"></stop></linearGradient></defs><defs><linearGradient id="grad2_2" x1="0%" y1="0%" x2="100%" y2="100%"><stop offset="30%" stop-color="#b71c7d" stop-opacity="1"></stop><stop offset="70%" stop-color="#672c76" stop-opacity="1"></stop></linearGradient></defs><defs><linearGradient id="grad2_3" x1="0%" y1="0%" x2="100%" y2="100%"><stop offset="30%" stop-color="#222653" stop-opacity="1"></stop><stop offset="70%" stop-color="#672c76" stop-opacity="1"></stop></linearGradient></defs><defs><linearGradient id="grad2_4" x1="0%" y1="0%" x2="100%" y2="100%"><stop offset="30%" stop-color="#222653" stop-opacity="1"></stop><stop offset="70%" stop-color="#001122" stop-opacity="1"></stop></linearGradient></defs><g transform="translate(900, 0)"><path d="M0 437.2C-58.5 429.4 -116.9 421.6 -164.2 396.3C-211.4 371 -247.5 328.2 -289.2 289.2C-330.9 250.2 -378.3 214.9 -404 167.3C-429.6 119.8 -433.4 59.9 -437.2 0L0 0Z" fill="#091d3b"></path><path d="M0 349.8C-46.8 343.6 -93.5 337.3 -131.3 317.1C-169.1 296.8 -198 262.6 -231.4 231.4C-264.7 200.1 -302.7 171.9 -323.2 133.9C-343.7 95.8 -346.7 47.9 -349.8 0L0 0Z" fill="#422b67"></path><path d="M0 262.3C-35.1 257.7 -70.1 253 -98.5 237.8C-126.9 222.6 -148.5 196.9 -173.5 173.5C-198.6 150.1 -227 128.9 -242.4 100.4C-257.7 71.9 -260 35.9 -262.3 0L0 0Z" fill="#8f287d"></path><path d="M0 174.9C-23.4 171.8 -46.8 168.7 -65.7 158.5C-84.6 148.4 -99 131.3 -115.7 115.7C-132.4 100.1 -151.3 86 -161.6 66.9C-171.8 47.9 -173.4 24 -174.9 0L0 0Z" fill="#dd0675"></path><path d="M0 87.4C-11.7 85.9 -23.4 84.3 -32.8 79.3C-42.3 74.2 -49.5 65.6 -57.8 57.8C-66.2 50 -75.7 43 -80.8 33.5C-85.9 24 -86.7 12 -87.4 0L0 0Z" fill="#ff0066"></path></g><g transform="translate(0, 1000)"><path d="M0 -437.2C53.5 -424.1 107 -410.9 162.6 -392.6C218.2 -374.4 275.9 -350.9 309.2 -309.2C342.5 -267.4 351.3 -207.3 368.6 -152.7C385.9 -98.1 411.6 -49.1 437.2 0L0 0Z" fill="#091d3b"></path><path d="M0 -349.8C42.8 -339.3 85.6 -328.7 130.1 -314.1C174.6 -299.5 220.7 -280.8 247.3 -247.3C274 -213.9 281.1 -165.8 294.9 -122.2C308.7 -78.5 329.3 -39.2 349.8 0L0 0Z" fill="#422b67"></path><path d="M0 -262.3C32.1 -254.5 64.2 -246.6 97.6 -235.6C130.9 -224.6 165.5 -210.6 185.5 -185.5C205.5 -160.4 210.8 -124.4 221.2 -91.6C231.5 -58.9 246.9 -29.4 262.3 0L0 0Z" fill="#8f287d"></path><path d="M0 -174.9C21.4 -169.6 42.8 -164.4 65.1 -157.1C87.3 -149.7 110.4 -140.4 123.7 -123.7C137 -107 140.5 -82.9 147.5 -61.1C154.4 -39.2 164.6 -19.6 174.9 0L0 0Z" fill="#dd0675"></path><path d="M0 -87.4C10.7 -84.8 21.4 -82.2 32.5 -78.5C43.6 -74.9 55.2 -70.2 61.8 -61.8C68.5 -53.5 70.3 -41.5 73.7 -30.5C77.2 -19.6 82.3 -9.8 87.4 0L0 0Z" fill="#ff0066"></path></g></svg>