<svg id="visual" viewBox="0 0 900 1000" width="900" height="1000" xmlns="http://www.w3.org/2000/svg" xmlns:xlink="http://www.w3.org/1999/xlink" version="1.1"><rect x="0" y="0" width="900" height="1000" fill="#FFFFFF"></rect><defs><linearGradient id="grad1_0" x1="0%" y1="100%" x2="100%" y2="0%"><stop offset="30%" stop-color="#ff0066" stop-opacity="1"></stop><stop offset="70%" stop-color="#ff0066" stop-opacity="1"></stop></linearGradient></defs><defs><linearGradient id="grad1_1" x1="0%" y1="100%" x2="100%" y2="0%"><stop offset="30%" stop-color="#ff0066" stop-opacity="1"></stop><stop offset="70%" stop-color="#ff4d7a" stop-opacity="1"></stop></linearGradient></defs><defs><linearGradient id="grad1_2" x1="0%" y1="100%" x2="100%" y2="0%"><stop offset="30%" stop-color="#ff728f" stop-opacity="1"></stop><stop offset="70%" stop-color="#ff4d7a" stop-opacity="1"></stop></linearGradient></defs><defs><linearGradient id="grad1_3" x1="0%" y1="100%" x2="100%" y2="0%"><stop offset="30%" stop-color="#ff728f" stop-opacity="1"></stop><stop offset="70%" stop-color="#ff91a4" stop-opacity="1"></stop></linearGradient></defs><defs><linearGradient id="grad1_4" x1="0%" y1="100%" x2="100%" y2="0%"><stop offset="30%" stop-color="#ffaeba" stop-opacity="1"></stop><stop offset="70%" stop-color="#ff91a4" stop-opacity="1"></stop></linearGradient></defs><defs><linearGradient id="grad1_5" x1="0%" y1="100%" x2="100%" y2="0%"><stop offset="30%" stop-color="#ffaeba" stop-opacity="1"></stop><stop offset="70%" stop-color="#ffc9d0" stop-opacity="1"></stop></linearGradient></defs><defs><linearGradient id="grad1_6" x1="0%" y1="100%" x2="100%" y2="0%"><stop offset="30%" stop-color="#ffe4e7" stop-opacity="1"></stop><stop offset="70%" stop-color="#ffc9d0" stop-opacity="1"></stop></linearGradient></defs><defs><linearGradient id="grad1_7" x1="0%" y1="100%" x2="100%" y2="0%"><stop offset="30%" stop-color="#ffe4e7" stop-opacity="1"></stop><stop offset="70%" stop-color="#ffffff" stop-opacity="1"></stop></linearGradient></defs><defs><linearGradient id="grad2_0" x1="0%" y1="100%" x2="100%" y2="0%"><stop offset="30%" stop-color="#ff0066" stop-opacity="1"></stop><stop offset="70%" stop-color="#ff0066" stop-opacity="1"></stop></linearGradient></defs><defs><linearGradient id="grad2_1" x1="0%" y1="100%" x2="100%" y2="0%"><stop offset="30%" stop-color="#ff4d7a" stop-opacity="1"></stop><stop offset="70%" stop-color="#ff0066" stop-opacity="1"></stop></linearGradient></defs><defs><linearGradient id="grad2_2" x1="0%" y1="100%" x2="100%" y2="0%"><stop offset="30%" stop-color="#ff4d7a" stop-opacity="1"></stop><stop offset="70%" stop-color="#ff728f" stop-opacity="1"></stop></linearGradient></defs><defs><linearGradient id="grad2_3" x1="0%" y1="100%" x2="100%" y2="0%"><stop offset="30%" stop-color="#ff91a4" stop-opacity="1"></stop><stop offset="70%" stop-color="#ff728f" stop-opacity="1"></stop></linearGradient></defs><defs><linearGradient id="grad2_4" x1="0%" y1="100%" x2="100%" y2="0%"><stop offset="30%" stop-color="#ff91a4" stop-opacity="1"></stop><stop offset="70%" stop-color="#ffaeba" stop-opacity="1"></stop></linearGradient></defs><defs><linearGradient id="grad2_5" x1="0%" y1="100%" x2="100%" y2="0%"><stop offset="30%" stop-color="#ffc9d0" stop-opacity="1"></stop><stop offset="70%" stop-color="#ffaeba" stop-opacity="1"></stop></linearGradient></defs><defs><linearGradient id="grad2_6" x1="0%" y1="100%" x2="100%" y2="0%"><stop offset="30%" stop-color="#ffc9d0" stop-opacity="1"></stop><stop offset="70%" stop-color="#ffe4e7" stop-opacity="1"></stop></linearGradient></defs><defs><linearGradient id="grad2_7" x1="0%" y1="100%" x2="100%" y2="0%"><stop offset="30%" stop-color="#ffffff" stop-opacity="1"></stop><stop offset="70%" stop-color="#ffe4e7" stop-opacity="1"></stop></linearGradient></defs><g transform="translate(900, 1000)"><path d="M-538.1 0C-528.3 -101.4 -518.4 -202.8 -466 -269.1C-413.7 -335.3 -318.8 -366.3 -234 -405.3C-149.2 -444.3 -74.6 -491.2 0 -538.1L0 0Z" fill="#fff2f3"></path><path d="M-470.9 0C-462.3 -88.7 -453.6 -177.5 -407.8 -235.4C-362 -293.4 -278.9 -320.5 -204.8 -354.6C-130.6 -388.7 -65.3 -429.8 0 -470.9L0 0Z" fill="#ffd7dc"></path><path d="M-403.6 0C-396.2 -76.1 -388.8 -152.1 -349.5 -201.8C-310.2 -251.5 -239.1 -274.7 -175.5 -304C-111.9 -333.2 -56 -368.4 0 -403.6L0 0Z" fill="#ffbcc5"></path><path d="M-336.3 0C-330.2 -63.4 -324 -126.8 -291.3 -168.2C-258.5 -209.6 -199.2 -229 -146.3 -253.3C-93.3 -277.7 -46.6 -307 0 -336.3L0 0Z" fill="#ffa0af"></path><path d="M-269.1 0C-264.1 -50.7 -259.2 -101.4 -233 -134.5C-206.8 -167.6 -159.4 -183.2 -117 -202.6C-74.6 -222.1 -37.3 -245.6 0 -269.1L0 0Z" fill="#ff8299"></path><path d="M-201.8 0C-198.1 -38 -194.4 -76.1 -174.8 -100.9C-155.1 -125.7 -119.5 -137.4 -87.8 -152C-56 -166.6 -28 -184.2 0 -201.8L0 0Z" fill="#ff6184"></path><path d="M-134.5 0C-132.1 -25.4 -129.6 -50.7 -116.5 -67.3C-103.4 -83.8 -79.7 -91.6 -58.5 -101.3C-37.3 -111.1 -18.7 -122.8 0 -134.5L0 0Z" fill="#ff3470"></path><path d="M-67.3 0C-66 -12.7 -64.8 -25.4 -58.3 -33.6C-51.7 -41.9 -39.8 -45.8 -29.3 -50.7C-18.7 -55.5 -9.3 -61.4 0 -67.3L0 0Z" fill="#ff0066"></path></g><g transform="translate(0, 0)"><path d="M538.1 0C520.8 91.7 503.4 183.4 460.7 266C418.1 348.6 350.1 422.2 269.1 466C188.1 509.9 94 524 0 538.1L0 0Z" fill="#fff2f3"></path><path d="M470.9 0C455.7 80.2 440.5 160.5 403.1 232.7C365.8 305 306.3 369.4 235.4 407.8C164.6 446.2 82.3 458.5 0 470.9L0 0Z" fill="#ffd7dc"></path><path d="M403.6 0C390.6 68.8 377.5 137.5 345.5 199.5C313.5 261.5 262.6 316.6 201.8 349.5C141.1 382.4 70.5 393 0 403.6L0 0Z" fill="#ffbcc5"></path><path d="M336.3 0C325.5 57.3 314.6 114.6 288 166.2C261.3 217.9 218.8 263.9 168.2 291.3C117.5 318.7 58.8 327.5 0 336.3L0 0Z" fill="#ffa0af"></path><path d="M269.1 0C260.4 45.8 251.7 91.7 230.4 133C209 174.3 175 211.1 134.5 233C94 254.9 47 262 0 269.1L0 0Z" fill="#ff8299"></path><path d="M201.8 0C195.3 34.4 188.8 68.8 172.8 99.7C156.8 130.7 131.3 158.3 100.9 174.8C70.5 191.2 35.3 196.5 0 201.8L0 0Z" fill="#ff6184"></path><path d="M134.5 0C130.2 22.9 125.8 45.8 115.2 66.5C104.5 87.2 87.5 105.5 67.3 116.5C47 127.5 23.5 131 0 134.5L0 0Z" fill="#ff3470"></path><path d="M67.3 0C65.1 11.5 62.9 22.9 57.6 33.2C52.3 43.6 43.8 52.8 33.6 58.3C23.5 63.7 11.8 65.5 0 67.3L0 0Z" fill="#ff0066"></path></g></svg>